<svg xmlns="http://www.w3.org/2000/svg" viewBox="0 0 64 64"><g id="_28-smart_car" data-name="28-smart car"><polygon points="0 37 16 37 17 38 22 38 34 35 38 35 38 32 30 28 0 28 0 37" style="fill:#c44c31"/><polygon points="30 28 0 28 0 14 20 14 30 28" style="fill:#c2dcf5"/><path d="M38,37h0a45.361,45.361,0,0,1-.473,19.894L37,59H32L22,60l-5-2H0V37H16l1,1h5l12-3h4Z" style="fill:#c94e3e"/><path d="M3,0H34a3,3,0,0,1,3,3h0a3,3,0,0,1-3,3H27l-3,4L21,6H3A3,3,0,0,1,0,3H0A3,3,0,0,1,3,0Z" style="fill:#a7a9ac"/><polygon points="47 64 64 64 64 33 47 33 47 38 44 40 47 42 47 64" style="fill:#d1d3d4"/><circle cx="44" cy="8" r="3" style="fill:#90c8e3"/><circle cx="56" cy="20" r="3" style="fill:#90c8e3"/><path d="M50,27A13,13,0,0,1,37,14h4a9,9,0,0,0,9,9Z" style="fill:#25507a"/><path d="M63,14A13,13,0,0,0,50,1V5a9,9,0,0,1,9,9Z" style="fill:#25507a"/><polygon points="22 60 24 64 35 64 37 59 32 59 22 60" style="fill:#3d3d3d"/><polygon points="0 52 15 52 17 58 0 58 0 52" style="fill:#dc9d5f"/><polygon points="13 54 14.333 58 17 58 15 52 0 52 0 54 13 54" style="fill:#8f5f30"/><path d="M17,58l-2-6h0a35.179,35.179,0,0,1,10.369-2.413l6.456-.5a2.562,2.562,0,0,1,2.008.743h0a2.564,2.564,0,0,1,.588,2.712L32,59,22,60Z" style="fill:#b04826"/><path d="M33.833,49.833a2.562,2.562,0,0,0-2.008-.743l-6.456.5A35.179,35.179,0,0,0,15,52l.519,1.556a35.114,35.114,0,0,1,5.85-.969l6.456-.5a2.563,2.563,0,0,1,2.6,3.455L29.013,59.3,32,59l2.421-6.455A2.564,2.564,0,0,0,33.833,49.833Z" style="fill:#84361c"/><path d="M18,38h4l12-3h4a9.137,9.137,0,0,1-7.93,9.057L23,45h0a5,5,0,0,1-5-5Z" style="fill:#da7435"/><path d="M17,38h0a6,6,0,0,1-6,6H0V37H16Z" style="fill:#e1b68e"/><path d="M16,37H14.91A6,6,0,0,1,9,42H0v2H11a6,6,0,0,0,6-6Z" style="fill:#a9896b"/><path d="M32,29h4.185a.668.668,0,0,0,.655-.8A5.225,5.225,0,0,0,31.716,24H27.143L30,28Z" style="fill:#d95231"/><polygon points="18.56 28 16.56 28 6.44 14 8.44 14 18.56 28" style="fill:#f3f8fd"/><polygon points="9.56 28 7.56 28 0 17.54 0 14.77 9.56 28" style="fill:#f3f8fd"/><polygon points="24.56 28 20 28 10 14 14.44 14 24.56 28" style="fill:#f3f8fd"/><path d="M22,38h0a3.7,3.7,0,0,0,3.988,3.693l3.03-.233A6.479,6.479,0,0,0,35,35H34L22,38" style="fill:#e7e18d"/><path d="M29.018,39.46l-3.03.233a3.685,3.685,0,0,1-3.461-1.825L22,38a3.7,3.7,0,0,0,3.988,3.693l3.03-.233A6.479,6.479,0,0,0,35,35h-.321A6.476,6.476,0,0,1,29.018,39.46Z" style="fill:#f5f3d1"/><path d="M50,21a7.009,7.009,0,0,1-7-7h2a5.006,5.006,0,0,0,5,5Z" style="fill:#c2dcf5"/><path d="M57,14H55a5.006,5.006,0,0,0-5-5V7A7.009,7.009,0,0,1,57,14Z" style="fill:#c2dcf5"/></g></svg>