<svg xmlns="http://www.w3.org/2000/svg" viewBox="0 0 64 64"><g id="_11-flying_car" data-name="11-flying car"><polyline points="12 34 12 39 20 39 20 34.833" style="fill:#3d3d3d"/><polyline points="52 34 52 39 44 39 44 34.833" style="fill:#3d3d3d"/><polygon points="49.86 20 14.14 20 21 12 43 12 49.86 20" style="fill:#c2dcf5"/><polygon points="31.27 12 28.36 20 27.36 20 30.27 12 31.27 12" style="fill:#fff"/><polygon points="37.27 12 34.36 20 33.36 20 36.27 12 37.27 12" style="fill:#fff"/><polygon points="29.27 12 26.36 20 23.36 20 26.27 12 29.27 12" style="fill:#fff"/><path d="M10,31H54a0,0,0,0,1,0,0v0a4,4,0,0,1-4,4H14a4,4,0,0,1-4-4v0A0,0,0,0,1,10,31Z" style="fill:#666"/><rect x="38" y="26" width="4" height="5" style="fill:#cc6111"/><rect x="22" y="26" width="4" height="5" style="fill:#cc6111"/><rect x="42" y="26" width="3" height="5" style="fill:#fbf5f5"/><rect x="19" y="26" width="3" height="5" style="fill:#fbf5f5"/><rect x="26" y="26" width="12" height="5" style="fill:#87b7e1"/><rect x="52" y="26" width="3" height="5" style="fill:#cc6111"/><rect x="9" y="26" width="3" height="5" style="fill:#cc6111"/><rect x="45" y="26" width="7" height="5" style="fill:#c41621"/><rect x="12" y="26" width="7" height="5" style="fill:#c41621"/><path d="M64,39h0a2,2,0,0,0-2,2h0a5.985,5.985,0,0,0-5.894,7.106,5.979,5.979,0,0,0-6.967,4.619,9.488,9.488,0,0,0-13.116,8.328A4.309,4.309,0,0,0,35.5,61,4.475,4.475,0,0,0,32,62.7,4.475,4.475,0,0,0,28.5,61a4.309,4.309,0,0,0-.523.053,9.488,9.488,0,0,0-13.116-8.328,5.979,5.979,0,0,0-6.967-4.619A5.985,5.985,0,0,0,2,41H2a2,2,0,0,0-2-2H0V64H64Z" style="fill:#d1d1d1"/><path d="M13,41h0a9.656,9.656,0,0,0,2.828,6.828L16,48l.172-.172A9.656,9.656,0,0,0,19,41h0" style="fill:#ffba49"/><path d="M45,41h0a9.656,9.656,0,0,0,2.828,6.828L48,48l.172-.172A9.656,9.656,0,0,0,51,41h0" style="fill:#ffba49"/><polygon points="29 20 27 26 9 26 14.14 20 29 20" style="fill:#7a7a7a"/><polygon points="55 26 37 26 35 20 49.86 20 55 26" style="fill:#7a7a7a"/><polygon points="37 26 27 26 29 20 35 20 37 26" style="fill:#333"/><polyline points="25 12 25 7 18 4 8 6 7 3 18 1 28 5 28 12" style="fill:#7a7a7a"/><polyline points="39 12 39 7 46 4 56 6 57 3 46 1 36 5 36 12" style="fill:#7a7a7a"/></g></svg>