<svg xmlns="http://www.w3.org/2000/svg" viewBox="0 0 64 64"><g id="_04-Holographic_city_model" data-name="04-Holographic city model"><path d="M63.236,64A31.838,31.838,0,1,0,.764,64Z" style="fill:#4f9c90"/><path d="M45,36.58V42H19V36.58A16.012,16.012,0,0,1,28,22a3.992,3.992,0,0,0,3,3.87,3.911,3.911,0,0,0,2,0A3.992,3.992,0,0,0,36,22,16.012,16.012,0,0,1,45,36.58Z" style="fill:#7c6871"/><polygon points="1 64 8 56 57 56 63 64 1 64" style="fill:#ffc86d"/><polyline points="55 59 55 53 51 50 51 59" style="fill:#a9d1eb"/><path d="M33,38.5V32.723a1.944,1.944,0,0,1-2,0v4.11Z" style="fill:#5d4e55"/><polyline points="24 59 24 41 30 36 36 41 36 59" style="fill:#a6cfe2"/><polyline points="24 59 24 41 30 36 36 41 36 59" style="fill:#a6cfe2"/><polyline points="44 59 44 41 51 47 51 59" style="fill:#cbe0f3"/><polyline points="48 59 48 51 40 51 40 59" style="fill:#83d5f6"/><path d="M40,33V22.792a.628.628,0,0,1,1.119-.393h0A13.144,13.144,0,0,1,44,30.611V33Z" style="fill:#ffccb8"/><path d="M24,33V22.792a.628.628,0,0,0-1.119-.393h0A13.144,13.144,0,0,0,20,30.611V33Z" style="fill:#ffccb8"/><path d="M32,22a7.951,7.951,0,0,1-4-1.078V22a4,4,0,0,0,8,0V20.921A7.965,7.965,0,0,1,32,22Z" style="fill:#f2b1a2"/><path d="M40,9v5a8,8,0,0,1-16,0V9a7.851,7.851,0,0,1,1.08-4,7.575,7.575,0,0,1,1.26-1.66A8,8,0,0,1,38.92,5,7.851,7.851,0,0,1,40,9Z" style="fill:#ffccb8"/><path d="M38.92,5H33L32,4,31,5H25.08a7.575,7.575,0,0,1,1.26-1.66A8,8,0,0,1,38.92,5Z" style="fill:#ffc86d"/><path d="M42,12a8.179,8.179,0,0,1-1.02,4c-1.61-.24-3.23-.42-4.85-.53l-.98-.06c-.27-.02-.55-.03-.82-.04-.33-.01-.67-.02-1-.02-1.34-.03-2.67-.02-4.01.04-1.02.05-2.03.12-3.04.21-1.09.11-2.18.24-3.26.4a8.353,8.353,0,0,1,0-8q2.34.345,4.68.51c.99.08,1.98.12,2.97.14.44.01.89.02,1.33.02.89,0,1.79-.02,2.68-.06.34-.02.68-.03,1.01-.06.4-.02.79-.05,1.19-.08l1.03-.09c1.02-.1,2.05-.23,3.07-.38A8.179,8.179,0,0,1,42,12Z" style="fill:#7eaedd"/><path d="M35.69,8.55l-1.36,6.82c-.33-.01-.67-.02-1-.02l1.35-6.74C35.02,8.59,35.36,8.58,35.69,8.55Z" style="fill:#dae1e9"/><path d="M30.67,8.65l-1.35,6.74c-1.02.05-2.03.12-3.04.21L27.7,8.51C28.69,8.59,29.68,8.63,30.67,8.65Z" style="fill:#dae1e9"/><path d="M37.91,8.38l-1.78,7.09-.98-.06,1.73-6.94Z" style="fill:#dae1e9"/><polyline points="20 59 20 44 14 44 14 59" style="fill:#daf2f8"/><polyline points="26 59 26 49 20 47 20 59" style="fill:#b6e8fc"/><polyline points="10 59 10 50 16 50 16 59" style="fill:#a9d1eb"/><polyline points="31 59 31 48 40 46 40 59" style="fill:#7eaedd"/><polyline points="18 37 18 33 26 33 26 37" style="fill:#e4dada"/><polyline points="38 37 38 33 46 33 46 37" style="fill:#e4dada"/><path d="M32,29a1.987,1.987,0,0,1,1,.277V25.87a3.911,3.911,0,0,1-2,0v3.407A1.987,1.987,0,0,1,32,29Z" style="fill:#5d4e55"/><circle cx="32" cy="31" r="2" style="fill:#25507a"/><path d="M18,37h8a0,0,0,0,1,0,0v0a2,2,0,0,1-2,2H20a2,2,0,0,1-2-2v0A0,0,0,0,1,18,37Z" style="fill:#3e3439"/><path d="M38,37h8a0,0,0,0,1,0,0v0a2,2,0,0,1-2,2H40a2,2,0,0,1-2-2v0A0,0,0,0,1,38,37Z" style="fill:#3e3439"/></g></svg>