<svg xmlns="http://www.w3.org/2000/svg" viewBox="0 0 64 64"><g id="_23-cloning" data-name="23-cloning"><polygon points="6 27 12 25 12 41 6 39 6 27" style="fill:#7399ab"/><polygon points="58 39 52 41 52 25 58 27 58 39" style="fill:#7399ab"/><rect x="6" y="31" width="6" height="4" style="fill:#ffba49"/><rect x="52" y="31" width="6" height="4" style="fill:#ffba49"/><rect x="9" y="59" width="46" height="4" rx="2" style="fill:#25507a"/><path d="M52,21V59H12V21a20.008,20.008,0,0,1,38.78-6.9,19.792,19.792,0,0,1,1.06,4.37A19.2,19.2,0,0,1,52,21Z" style="fill:#90c8e3"/><polygon points="52 30.37 52 32.37 12 56.07 12 54.07 52 30.37" style="fill:#d3e9f4"/><polygon points="52 26.37 52 28.37 12 52.07 12 50.07 52 26.37" style="fill:#d3e9f4"/><path d="M51.84,18.47,12,42.07v-5L50.78,14.1A19.792,19.792,0,0,1,51.84,18.47Z" style="fill:#d3e9f4"/><path d="M43.436,29.436a1.93,1.93,0,0,1-.537-1.045l-.014-.079A49.822,49.822,0,0,0,40,18a4.879,4.879,0,0,0-3.922-4.784,2.251,2.251,0,0,1-1.57-1.2l-.477-.955a2.668,2.668,0,0,1-4.062,0l-.477.955a2.251,2.251,0,0,1-1.57,1.2A4.879,4.879,0,0,0,24,18a49.822,49.822,0,0,0-2.885,10.312l-.014.079a1.93,1.93,0,0,1-.537,1.045A1.926,1.926,0,0,0,20,30.8V32h1v.407a1.593,1.593,0,0,0,3.174.2L25,26l2-6a9.468,9.468,0,0,1,1,4.236v1.239a9.362,9.362,0,0,1-.058,1.046l-1.259,5.5a17.631,17.631,0,0,0-.322,6.019l1.517,12.775a11.463,11.463,0,0,1-.571,4.267.7.7,0,0,0,.664.921h3.058a.7.7,0,0,0,.664-.921,16.59,16.59,0,0,1-.822-4.266l-.555-9.437A24.131,24.131,0,0,1,32,31a24.131,24.131,0,0,1,1.684,10.376l-.555,9.437a16.59,16.59,0,0,1-.822,4.266.7.7,0,0,0,.664.921h3.058a.7.7,0,0,0,.664-.921,11.463,11.463,0,0,1-.571-4.267l1.517-12.775a17.631,17.631,0,0,0-.322-6.019l-1.259-5.5A9.362,9.362,0,0,1,36,25.475V24.236A9.468,9.468,0,0,1,37,20l2,6,.826,6.6a1.593,1.593,0,0,0,3.174-.2V32h1V30.8A1.926,1.926,0,0,0,43.436,29.436Z" style="fill:#d47165"/><path d="M34,25H30a1,1,0,0,1,0-2h4a1,1,0,0,1,0,2Z" style="fill:#9f554c"/><path d="M12,43h0a12.33,12.33,0,0,1,8,11.544V59H12V43" style="fill:#b1b1b1"/><path d="M52,43h0a12.33,12.33,0,0,0-8,11.544V59h8V43" style="fill:#b1b1b1"/><path d="M34,19H30a1,1,0,0,1,0-2h4a1,1,0,0,1,0,2Z" style="fill:#9f554c"/><path d="M34,22H30a1,1,0,0,1,0-2h4a1,1,0,0,1,0,2Z" style="fill:#9f554c"/><ellipse cx="20" cy="12" rx="3" ry="2" transform="translate(-3.155 9.201) rotate(-24.071)" style="fill:#f5fafc"/><ellipse cx="18.962" cy="16.475" rx="1.5" ry="1" transform="translate(-5.071 9.167) rotate(-24.071)" style="fill:#f5fafc"/><ellipse cx="32" cy="8.5" rx="3" ry="3.5" style="fill:#df958b"/></g></svg>