<svg xmlns="http://www.w3.org/2000/svg" viewBox="0 0 64 64"><g id="_19-VR_program" data-name="19-VR program"><path d="M37,9H33V7L28,5l4.489-.748a3.873,3.873,0,0,1,2.786.6h0A3.872,3.872,0,0,1,37,8.073Z" style="fill:#e8bf75"/><path d="M33,9v1L29.905,8.762,32,14l4-2a3.415,3.415,0,0,0,1-2.414V9Z" style="fill:#ffccb8"/><polygon points="28 5 33 7 33 10 28 8 28 5" style="fill:#6aa0b5"/><rect y="48" width="64" height="7" style="fill:#25507a"/><polygon points="32 14 36 12 36 16 33 17 32 16 32 14" style="fill:#efbbab"/><polygon points="19 16 17 13 13 14 13 16 15 16 15 17 18 19 19 16" style="fill:#ffccb8"/><ellipse cx="32" cy="52" rx="18" ry="11" style="fill:#92e4f7"/><ellipse cx="32" cy="52" rx="13" ry="7.944" style="fill:#ffebe3"/><polyline points="37 31 39 43 41 53 38 53 33 34 33 32" style="fill:#977d65"/><polyline points="33 32 33 37 34 50 31 48 29 37 29 31" style="fill:#977d65"/><path d="M31,48l-2.115,2.82a1.231,1.231,0,0,0,.434,1.84h0a1.233,1.233,0,0,0,1.29-.117L34,50Z" style="fill:#999"/><path d="M38,53l-1.385,2.385a1.208,1.208,0,0,0-.226,1.393h0a1.206,1.206,0,0,0,1.748.464h0a6.527,6.527,0,0,0,2.571-3.366L41,53Z" style="fill:#999"/><path d="M49,2V7h0a8.541,8.541,0,0,1,6.561,3.073L58,13V6l-.815-1.018A8.378,8.378,0,0,0,49,2Z" style="fill:#d4e4f4"/><path d="M11,10V4h0a15,15,0,0,1,9-3h0V6h0a12.073,12.073,0,0,0-8.536,3.536Z" style="fill:#c4f1fe"/><path d="M10,18v6h0a12.093,12.093,0,0,0,12,6h0V25h0a13.046,13.046,0,0,1-9.9-4.556Z" style="fill:#25507a"/><path d="M41,24l2.1-.466A24.284,24.284,0,0,0,55,17h0V27h0a17.576,17.576,0,0,1-10.279,6.256L41,34Z" style="fill:#6aa0b5"/><path d="M19,16l4,1,6-3h3v1.433a1.368,1.368,0,0,0,.4.968h0a1.37,1.37,0,0,0,1.4.331L36,16l3,3-3,8,1,4h0a9.957,9.957,0,0,1-8.152.339L28,31V19l-5,2-5-2Z" style="fill:#820909"/><polygon points="39 19 36 27 30 24 31 21 35 22 36 16 39 19" style="fill:#90120a"/><polygon points="31 21 30 18 25 19 25 20 28 21 27 23 30 24 31 21" style="fill:#ffccb8"/></g></svg>