<svg xmlns="http://www.w3.org/2000/svg" viewBox="0 0 64 64"><g id="_09-robotic_hand" data-name="09-robotic hand"><rect width="64" height="64" style="fill:#ffc667"/><rect x="4" y="4" width="56" height="56" style="fill:#ffd185"/><polygon points="11 46 10 44 19 34 20 32 21 32 22 31 29 34 29 35 30 36 31 38 31 40 32 41 33 43 30 46 30 48 26 52 25 50 21 51 19 50 19 49 18 48 17 48 13 46 11 46" style="fill:#7eaedd"/><polygon points="60 56 52 56 49 60 48 56 46 56 46 40 60 40 60 56" style="fill:#e4e5e8"/><rect x="52" y="29" width="12" height="5" style="fill:#72b0a6"/><polyline points="64 11 54 11 54 21 64 21" style="fill:#bac1d2"/><polyline points="27 64 27 59 42 59 42 64" style="fill:#4f9c90"/><rect x="26" y="9" width="22" height="16" style="fill:#95c4bc"/><rect x="28" y="11" width="18" height="12" style="fill:#bfdcd7"/><polygon points="20 18 12 18 10 22 8 18 0 18 0 6 20 6 20 18" style="fill:#bac1d2"/><polygon points="0 64 5 57 11 57 17 61 16 64 0 64" style="fill:#b2ceeb"/><polygon points="4 64 7 60 10 60 13 62 12 64 4 64" style="fill:#c64824"/><polygon points="15.875 60.25 17 58 12 54 8 54 6 57 11 57 15.875 60.25" style="fill:#25507a"/><polygon points="8 54 6 53 8 50 10 49 13 50 18 53 19 55 19 56 20 58 19 59 16.5 59 17 58 12 54 8 54" style="fill:#7eaedd"/><polyline points="10 44 10 39 15 36 16.158 37.158" style="fill:#8fa6bd"/><path d="M11,35,9,33H9a5.984,5.984,0,0,0,1.447-2.342L11,29l3-1h0a10.86,10.86,0,0,1,.233,6.068L14,35" style="fill:#bccad7"/><path d="M30,22l2.385-2.385a1.208,1.208,0,0,1,1.393-.226h0a1.206,1.206,0,0,1,.464,1.748L33,23" style="fill:#bccad7"/><path d="M26,25l4-3,3,1h0a8.4,8.4,0,0,1-2.861,3.24L29,27" style="fill:#a5b8ca"/><polygon points="10 49 11 46 13 46 17 48 18 48 19 49 19 50 21 51 25 50 26 52 22 56 19.429 56.857 19 56 19 55 18 53 13 50 10 49" style="fill:#b2ceeb"/><path d="M31,38.8V40l1,1,1,2a8.478,8.478,0,0,0,3.789-.894L37,42V40Z" style="fill:#8fa6bd"/><path d="M29,35l1,1,1,2v1a18.468,18.468,0,0,0,5.846-.949L37,38V35Z" style="fill:#8fa6bd"/><path d="M29,34v1l2.227-.445A9.345,9.345,0,0,0,36,32l-2-2-9.053,2.263Z" style="fill:#8fa6bd"/><path d="M29,27l-3-2a24.722,24.722,0,0,1-2.342,3.789L22,31l3.481,1.492A17.822,17.822,0,0,0,29,27Z" style="fill:#8fa6bd"/><path d="M30,48l-4,4-1-2-4,1-2-1V49l-1-1L16.989,48,13,46H11l-1-2,2.308-2.565a28.923,28.923,0,0,1,7.728,3.122l1.464.878h4l3-3,3.039,2.026L30,46Z" style="fill:#25507a"/><rect x="49" y="43" width="8" height="2" style="fill:#4f5564"/><rect x="53" y="47" width="4" height="2" style="fill:#4f5564"/><rect x="49" y="51" width="6" height="2" style="fill:#4f5564"/><rect x="49" y="47" width="2" height="2" style="fill:#4f5564"/><rect x="7" y="9" width="10" height="2" style="fill:#4f5564"/><rect x="3" y="13" width="10" height="2" style="fill:#4f5564"/><rect x="3" y="9" width="2" height="2" style="fill:#4f5564"/><rect x="15" y="13" width="2" height="2" style="fill:#4f5564"/><rect x="57" y="15" width="2" height="2" style="fill:#4f5564"/><rect x="61" y="15" width="2" height="2" style="fill:#4f5564"/><ellipse cx="24" cy="52" rx="3" ry="2" transform="translate(-33.27 51.571) rotate(-64.796)" style="fill:#c64824"/><path d="M11,38.4V35.5A1.5,1.5,0,0,1,12.5,34h0A1.5,1.5,0,0,1,14,35.5v1.1" style="fill:#a5b8ca"/><path d="M33,43l-3,3h2.818a2.361,2.361,0,0,0,1.891-.946L37,42l-.211.106A8.478,8.478,0,0,1,33,43Z" style="fill:#6e7e8d"/></g></svg>