<svg xmlns="http://www.w3.org/2000/svg" viewBox="0 0 64 64"><g id="_27-scientist" data-name="27-scientist"><path d="M19,49l-1.723,1.34C12.486,54.067,6.926,55.683,1,57v6H63V57c-5.926-1.317-11.486-2.933-16.277-6.66L45,49" style="fill:#05748c"/><path d="M13,16V11a2,2,0,0,1,2-2h0V7a2,2,0,0,1,2-2h0a4,4,0,0,1,4-4H43a4,4,0,0,1,4,4h0a2,2,0,0,1,2,2V9h0a2,2,0,0,1,2,2v5" style="fill:#a67c52"/><path d="M46,16H18V10h0a98.965,98.965,0,0,1,28,0h0Z" style="fill:#ffccb8"/><path d="M42,44h4A10,10,0,0,1,36,54H28A10,10,0,0,1,18,44h4" style="fill:#ccc"/><path d="M45,34l-.53,2-.27,1-1.7,6.39A7.566,7.566,0,0,1,35.19,49H28.81a7.566,7.566,0,0,1-7.31-5.61L19.8,37l-.27-1L19,34h9l4-3,4,3Z" style="fill:#ffccb8"/><polygon points="49 34 36 34 32 31 28 34 15 34 11 29 11 16 53 16 53 29 49 34" style="fill:#90c8e3"/><polygon points="38 16 36.333 21 43 21 47 26 53 26 53 16 38 16" style="fill:#d4e4f4"/><polygon points="26 16 11 16 11 26 17 26 21 21 27.667 21 26 16" style="fill:#d4e4f4"/><polygon points="36 22 28 22 26 16 38 16 36 22" style="fill:#25507a"/><rect x="27" y="39" width="10" height="2" style="fill:#b2826f"/><rect x="30" y="43" width="4" height="2" style="fill:#bf998a"/></g></svg>