<svg xmlns="http://www.w3.org/2000/svg" viewBox="0 0 64 64"><g id="_05-anywhere_door" data-name="05-anywhere door"><path d="M63,63H1a23.991,23.991,0,0,1,.34-4A24.791,24.791,0,0,1,5.49,49C10.93,41.21,20.76,36,32,36c15.96,0,29.1,10.5,30.81,24A22.905,22.905,0,0,1,63,63Z" style="fill:#94c9ed"/><path d="M62.81,60C61.1,46.5,47.96,36,32,36a35.373,35.373,0,0,0-8,.914C36.168,39.736,45.4,48.84,46.81,60A22.905,22.905,0,0,1,47,63H63A22.905,22.905,0,0,0,62.81,60Z" style="fill:#bfdff4"/><path d="M22,51a2.015,2.015,0,0,1-2,2H14.5a1.5,1.5,0,0,0,0,3h3a1.5,1.5,0,0,1,0,3H1.34A24.791,24.791,0,0,1,5.49,49H20A2.006,2.006,0,0,1,22,51Z" style="fill:#d6d370"/><path d="M63,63H49a3,3,0,0,1,3-3H62.81A22.905,22.905,0,0,1,63,63Z" style="fill:#d6d370"/><polygon points="45.222 40 18.778 40 15 1 49 1 45.222 40" style="fill:#d83f46"/><polygon points="42.787 37 21.213 37 18.132 4 45.868 4 42.787 37" style="fill:#ffc86d"/><path d="M35,18v1.766A1.233,1.233,0,0,0,36.234,21h1.532A1.233,1.233,0,0,0,39,19.766V18" style="fill:#3d3d3d"/><path d="M25,18v1.766A1.233,1.233,0,0,0,26.234,21h1.532A1.233,1.233,0,0,0,29,19.766V18" style="fill:#3d3d3d"/><path d="M13,27A5,5,0,0,1,3,27a4.812,4.812,0,0,1,.15-1.2A5,5,0,0,1,13,27Z" style="fill:#cca8f2"/><path d="M11.9,30.13a4.944,4.944,0,0,0,.13-1.1A5.015,5.015,0,0,0,3.15,25.8a5,5,0,1,1,8.75,4.33Z" style="fill:#8362a5"/><path d="M38,24h0a3.855,3.855,0,0,1-.24,3.861L37,29l-2-3-.535,3.21A8.821,8.821,0,0,1,32,34h0a8.821,8.821,0,0,1-2.465-4.79L29,26l-2,3-.76-1.139A3.855,3.855,0,0,1,26,24h0" style="fill:#cc6111"/><path d="M46.5,51h2A1.5,1.5,0,0,1,50,52.5h0A1.5,1.5,0,0,1,48.5,54h-9A1.5,1.5,0,0,1,38,52.5h0A1.5,1.5,0,0,1,39.5,51h1A1.5,1.5,0,0,0,42,49.5h0A1.5,1.5,0,0,0,40.5,48h-9A1.5,1.5,0,0,1,30,46.5h0A1.5,1.5,0,0,1,31.5,45h16A1.5,1.5,0,0,1,49,46.5h0A1.5,1.5,0,0,1,47.5,48h-1A1.5,1.5,0,0,0,45,49.5h0A1.5,1.5,0,0,0,46.5,51Z" style="fill:#d6d370"/><path d="M41,18H23V14.959A2.959,2.959,0,0,1,25.959,12H38.041A2.959,2.959,0,0,1,41,14.959Z" style="fill:#c41621"/><polygon points="38 12 26 12 27.8 8 36.2 8 38 12" style="fill:#c2dcf5"/><polygon points="34.67 8 33.33 12 32.33 12 33.67 8 34.67 8" style="fill:#f3f8fd"/><polygon points="31.67 8 30.33 12 28.33 12 29.67 8 31.67 8" style="fill:#f3f8fd"/><circle cx="27.005" cy="14.995" r="1.005" style="fill:#fff"/><circle cx="37.005" cy="14.995" r="1.005" style="fill:#fff"/><rect x="29" y="14" width="6" height="2" style="fill:#d6d0d0"/><path d="M12.88,25.91a35.358,35.358,0,0,1-2.8,3.17,34.065,34.065,0,0,1-3.17,2.8c-.58.44-1.15.84-1.68,1.17a6.171,6.171,0,0,1-2.8,1.05,1.6,1.6,0,0,1-1.2-.46c-1.33-1.32,1.11-5.02,1.82-6.02a4.77,4.77,0,0,0,.89,2.3,11.674,11.674,0,0,0-1,2.07,10.019,10.019,0,0,0,1.92-1.1,27.577,27.577,0,0,0,3.8-3.23,27.577,27.577,0,0,0,3.23-3.8,10.019,10.019,0,0,0,1.1-1.92,11.674,11.674,0,0,0-2.07,1,4.884,4.884,0,0,0-2.3-.9c1.12-.8,4.7-3.14,6.02-1.81C15.83,21.42,14.45,23.86,12.88,25.91Z" style="fill:#635080"/></g></svg>