<svg xmlns="http://www.w3.org/2000/svg" viewBox="0 0 64 64"><g id="_13-eye_scan" data-name="13-eye scan"><path d="M47,56l.571-1H37.414l-6.707-6.707-1.414,1.414,7,7A1,1,0,0,0,37,57H47.571Z" style="fill:#446b90"/><path d="M22.651,7.241A1,1,0,0,0,22,7H16.429L17,8l-.571,1h5.2l6.719,5.759,1.3-1.518Z" style="fill:#446b90"/><polygon points="13 1 5 1 1 8 5 15 13 15 17 8 13 1" style="fill:#4f9c90"/><path d="M32,13h0A30.215,30.215,0,0,0,8.3,24.47L7.08,26.017A9.644,9.644,0,0,0,5,32H5a9.644,9.644,0,0,0,2.08,5.983L8.3,39.53A30.215,30.215,0,0,0,32,51h0A30.215,30.215,0,0,0,55.7,39.53l1.223-1.547A9.644,9.644,0,0,0,59,32h0a9.644,9.644,0,0,0-2.08-5.983L55.7,24.47A30.215,30.215,0,0,0,32,13Z" style="fill:#bac1d2"/><path d="M48,34V30H45.113a1.6,1.6,0,0,1-1.551-1.175,11.914,11.914,0,0,0-1.139-2.754,1.605,1.605,0,0,1,.264-1.93L44.728,22.1,41.9,19.272l-2.04,2.041a1.605,1.605,0,0,1-1.93.264,11.914,11.914,0,0,0-2.754-1.139A1.6,1.6,0,0,1,34,18.887V16H30v2.887a1.6,1.6,0,0,1-1.175,1.551,11.914,11.914,0,0,0-2.754,1.139,1.605,1.605,0,0,1-1.93-.264L22.1,19.272,19.272,22.1l2.041,2.041a1.605,1.605,0,0,1,.264,1.93,11.914,11.914,0,0,0-1.139,2.754A1.6,1.6,0,0,1,18.887,30H16v4h2.887a1.6,1.6,0,0,1,1.551,1.175,11.914,11.914,0,0,0,1.139,2.754,1.605,1.605,0,0,1-.264,1.93L19.272,41.9,22.1,44.728l2.04-2.041a1.605,1.605,0,0,1,1.93-.264,11.914,11.914,0,0,0,2.754,1.139A1.6,1.6,0,0,1,30,45.113V48h4V45.113a1.6,1.6,0,0,1,1.175-1.551,11.914,11.914,0,0,0,2.754-1.139,1.605,1.605,0,0,1,1.93.264l2.04,2.041L44.728,41.9l-2.041-2.04a1.605,1.605,0,0,1-.264-1.93,11.914,11.914,0,0,0,1.139-2.754A1.6,1.6,0,0,1,45.113,34Z" style="fill:#ffa001"/><path d="M41,32a8.963,8.963,0,0,1-1.97,5.61,7.953,7.953,0,0,1-1.42,1.42A8.963,8.963,0,0,1,26.36,39a8.7,8.7,0,0,1-1.83-2,7.718,7.718,0,0,1-.59-1,9.167,9.167,0,0,1-.72-2A9.356,9.356,0,0,1,23,32a8.927,8.927,0,0,1,2.43-6.14,8.5,8.5,0,0,1,1.51-1.3A8.984,8.984,0,0,1,38.7,26a8.8,8.8,0,0,1,1.78,3,8.431,8.431,0,0,1,.46,2A8.262,8.262,0,0,1,41,32Z" style="fill:#7eaedd"/><path d="M40.06,28H34V26h4.7A8.827,8.827,0,0,1,40.06,28Z" style="fill:#cbdff1"/><path d="M30,34v2H23.94a9.167,9.167,0,0,1-.72-2Z" style="fill:#cbdff1"/><path d="M30,37v2H26.36a8.7,8.7,0,0,1-1.83-2Z" style="fill:#cbdff1"/><path d="M40.94,31H35V29h5.48A8.431,8.431,0,0,1,40.94,31Z" style="fill:#cbdff1"/><circle cx="32" cy="32" r="5" style="fill:#c64824"/><polygon points="32.942 30.335 30.826 30.335 29.768 32.167 30.826 34 32.942 34 34 32.167 32.942 30.335" style="fill:#e6e6e6"/><polygon points="59 49 51 49 47 56 51 63 59 63 63 56 59 49" style="fill:#2f9334"/><path d="M28.95,26.842,26.94,24.56a8.5,8.5,0,0,0-1.51,1.3l1.993,2.269A5.97,5.97,0,0,0,26,32h2a4,4,0,0,1,4-4V26A5.959,5.959,0,0,0,28.95,26.842Z" style="fill:#446b90"/><path d="M36.888,35.468A5.968,5.968,0,0,0,38,32H36a4,4,0,0,1-4,4v2a5.968,5.968,0,0,0,3.468-1.112L37.61,39.03a7.953,7.953,0,0,0,1.42-1.42Z" style="fill:#446b90"/><path d="M17,39H11a1,1,0,0,1-1-1V26a1,1,0,0,1,1-1h6v2H12V37h5Z" style="fill:#ffc667"/><path d="M53,39H47V37h5V27H47V25h6a1,1,0,0,1,1,1V38A1,1,0,0,1,53,39Z" style="fill:#ffc667"/><rect x="48" y="2" width="10" height="2" style="fill:#f57f17"/><rect x="60" y="2" width="2" height="2" style="fill:#f57f17"/><rect x="48" y="6" width="2" height="2" style="fill:#f57f17"/><rect x="52" y="6" width="10" height="2" style="fill:#f57f17"/><rect x="48" y="10" width="10" height="2" style="fill:#f57f17"/><rect x="2" y="52" width="10" height="2" style="fill:#f57f17"/><rect x="14" y="52" width="2" height="2" style="fill:#f57f17"/><rect x="2" y="56" width="2" height="2" style="fill:#f57f17"/><rect x="6" y="56" width="10" height="2" style="fill:#f57f17"/><rect x="2" y="60" width="10" height="2" style="fill:#f57f17"/><rect x="52" y="52" width="6" height="2" style="fill:#fff"/><rect x="52" y="55" width="6" height="2" style="fill:#fff"/><rect x="52" y="58" width="4" height="2" style="fill:#fff"/><rect x="6" y="4" width="6" height="2" style="fill:#ffc667"/><rect x="6" y="7" width="6" height="2" style="fill:#ffc667"/><rect x="6" y="10" width="4" height="2" style="fill:#ffc667"/></g></svg>