<svg xmlns="http://www.w3.org/2000/svg" viewBox="0 0 64 64"><g id="_22-office_man" data-name="22-office man"><path d="M20,41H17A6,6,0,0,0,12,35.089c0-.03.005-.059.005-.089a6,6,0,0,0-6-6,6,6,0,0,0-6-6V64H64V29H63a4,4,0,0,0-4,4H57a4,4,0,0,0-4,4v1h0a7,7,0,0,0-7,7h0" style="fill:#fff1db"/><polygon points="22 46 28 48 28 51 22 49 22 46" style="fill:#747474"/><path d="M40,18.535V16a4.954,4.954,0,0,1-2.954-.985L37,15v3l2.56.427C39.711,18.452,39.854,18.5,40,18.535Z" style="fill:#f9c0af"/><path d="M50,13l-2,2a7.63,7.63,0,0,1-3.828,4.414l-1.643.687a5.025,5.025,0,0,1,1.082,2.059L47,21a7.63,7.63,0,0,0,4.414-3.828L52,16Z" style="fill:#c41621"/><path d="M37,18h0a4.387,4.387,0,0,0-3,4.162V45H46V33.5a23.4,23.4,0,0,0-1.672-8.684L44,24l-.316-1.58a5.053,5.053,0,0,0-4.124-3.993Z" style="fill:#4f9c90"/><polyline points="35 45 33.944 64 37.889 64 40 45" style="fill:#533e29"/><polyline points="40 45 41.056 64 45 64 45 45" style="fill:#533e29"/><path d="M34,8,32,3h3l2-2H49L47,3l3,1h0a3.618,3.618,0,0,1-3.236,2H37V8Z" style="fill:#393434"/><path d="M35,11a5,5,0,0,0,5,5h0a5,5,0,0,0,5-5V6H37V8H34v3Z" style="fill:#ffccb8"/><path d="M7,64V59a2,2,0,0,1,2-2H9a2,2,0,0,1,2,2v.5A1.5,1.5,0,0,0,12.5,61h0A1.5,1.5,0,0,0,14,59.5V56a2,2,0,0,1,2-2h0a2,2,0,0,1,2,2v.5A1.5,1.5,0,0,0,19.5,58h0A1.5,1.5,0,0,0,21,56.5v-.938a2,2,0,0,1,2.485-1.941h0A2,2,0,0,1,25,55.562V59.5A1.5,1.5,0,0,0,26.5,61h0A1.5,1.5,0,0,0,28,59.5v-1A1.5,1.5,0,0,1,29.5,57h0A1.5,1.5,0,0,1,31,58.5V64" style="fill:#ffba49"/><rect x="20" y="20" width="14" height="24" style="fill:#e9f4f9"/><path d="M29,26V38a3,3,0,0,1-6,0V26a3,3,0,0,1,6,0Z" style="fill:#90c8e3"/><path d="M34,20H20l1.5-4L25.65,4.94a1.439,1.439,0,0,1,2.7,0L32.5,16Z" style="fill:#f16441"/><polygon points="29 29 29 31 23 29 23 27 29 29" style="fill:#fff"/><polygon points="29 32 29 33 23 31 23 30 29 32" style="fill:#fff"/><polygon points="34 20 20 20 21.5 16 32.5 16 34 20" style="fill:#f7a28d"/><path d="M39,45,37,23.526A2.309,2.309,0,0,1,39,21h0a2.309,2.309,0,0,1,2,2.526L43,45Z" style="fill:#72b0a6"/><path d="M39,45v1a2,2,0,0,0,2,2h0a2,2,0,0,0,2-2V45" style="fill:#ffccb8"/><polygon points="28 48 22 46 22 44 28 44 28 48" style="fill:#aeaeae"/></g></svg>